HIERARCHY
ROOT Hips
{
 OFFSET 0.000000 0.000000 0.000000
 CHANNELS 6 Xposition Yposition Zposition Yrotation Xrotation Zrotation
 JOINT Chest
 {
  OFFSET 0.000000 9.585900 0.002600
  CHANNELS 3 Yrotation Xrotation Zrotation
  JOINT Chest2
  {
   OFFSET 0.000000 9.601200 -0.005300
   CHANNELS 3 Yrotation Xrotation Zrotation
   JOINT Chest3
   {
    OFFSET 0.000000 9.561800 0.000000
    CHANNELS 3 Yrotation Xrotation Zrotation
    JOINT Chest4
    {
     OFFSET 0.000000 9.552100 0.000000
     CHANNELS 3 Yrotation Xrotation Zrotation
     JOINT Neck
     {
      OFFSET 0.000000 14.453000 0.000000
      CHANNELS 3 Yrotation Xrotation Zrotation
      JOINT Head
      {
       OFFSET 0.000000 8.936500 -0.011300
       CHANNELS 3 Yrotation Xrotation Zrotation
       End Site
       {
        OFFSET 0.000000 17.073600 -0.006000
       }
      }
     }
     JOINT RightCollar
     {
      OFFSET -2.921100 9.558500 0.000000
      CHANNELS 3 Yrotation Xrotation Zrotation
      JOINT RightShoulder
      {
       OFFSET -13.519700 0.000000 0.000000
       CHANNELS 3 Yrotation Xrotation Zrotation
       JOINT RightElbow
       {
        OFFSET 0.000000 -29.696600 0.000000
        CHANNELS 3 Yrotation Xrotation Zrotation
        JOINT RightWrist
        {
         OFFSET 0.000000 -24.004700 0.000000
         CHANNELS 3 Yrotation Xrotation Zrotation
         End Site
         {
          OFFSET 0.000000 -17.728500 0.000000
         }
        }
       }
      }
     }
     JOINT LeftCollar
     {
      OFFSET 2.921100 9.558500 0.000000
      CHANNELS 3 Yrotation Xrotation Zrotation
      JOINT LeftShoulder
      {
       OFFSET 13.519700 0.000000 0.000000
       CHANNELS 3 Yrotation Xrotation Zrotation
       JOINT LeftElbow
       {
        OFFSET 0.000000 -29.696600 0.000000
        CHANNELS 3 Yrotation Xrotation Zrotation
        JOINT LeftWrist
        {
         OFFSET 0.000000 -24.004700 0.000000
         CHANNELS 3 Yrotation Xrotation Zrotation
         End Site
         {
          OFFSET 0.000000 -17.728500 0.000000
         }
        }
       }
      }
     }
    }
   }
  }
 }
 JOINT RightHip
 {
  OFFSET -7.771700 -0.012900 -0.001300
  CHANNELS 3 Yrotation Xrotation Zrotation
  JOINT RightKnee
  {
   OFFSET 0.000000 -40.869800 0.001200
   CHANNELS 3 Yrotation Xrotation Zrotation
   JOINT RightAnkle
   {
    OFFSET 0.000000 -39.717900 0.002100
    CHANNELS 3 Yrotation Xrotation Zrotation
    JOINT RightToe
    {
     OFFSET 0.000000 -4.965400 11.033500
     CHANNELS 3 Yrotation Xrotation Zrotation
     End Site
     {
      OFFSET 0.000000 -1.423100 5.872300
     }
    }
   }
  }
 }
 JOINT LeftHip
 {
  OFFSET 7.771700 -0.012900 -0.001300
  CHANNELS 3 Yrotation Xrotation Zrotation
  JOINT LeftKnee
  {
   OFFSET 0.000000 -40.869800 0.001200
   CHANNELS 3 Yrotation Xrotation Zrotation
   JOINT LeftAnkle
   {
    OFFSET 0.000000 -39.717900 0.002100
    CHANNELS 3 Yrotation Xrotation Zrotation
    JOINT LeftToe
    {
     OFFSET 0.000000 -4.965400 11.033500
     CHANNELS 3 Yrotation Xrotation Zrotation
     End Site
     {
      OFFSET 0.000000 -1.423100 5.872300
     }
    }
   }
  }
 }
}
MOTION
Frames: 11
Frame Time: 0.008333
-2.601111 49.876392 29.183508 173.022576 -31.492696 -6.623087 6.141848 18.400600 6.486080 0.646620 2.318953 0.578925 1.074886 3.804298 0.965298 5.015350 15.939611 4.685776 -1.402403 15.329691 0.709210 -2.909613 -7.245619 1.864315 1.167808 -4.327931 -6.663266 4.033526 -5.200665 0.592978 100.029073 -72.252131 -112.242360 1.154629 -17.501917 -24.377062 -8.974682 -4.457717 -0.564350 4.836805 -2.947224 0.169362 -135.568922 -65.807347 135.865761 13.824031 -11.365861 9.956988 -1.977697 -48.351460 10.654941 -122.088719 81.715592 -110.305517 -0.396878 -15.023014 -3.858148 0.027540 0.831767 -0.021605 -7.223272 -52.891022 17.330202 -152.661402 80.997975 -160.732983 -0.297794 -15.513223 9.196620 -0.414824 -0.500939 -0.097098
-2.594430 49.874596 29.180935 173.014353 -31.420831 -6.612877 6.100311 18.355490 6.471326 0.609431 2.308026 0.584482 1.091617 3.787133 0.952595 4.978210 15.902866 4.676000 -1.369092 15.459506 0.719206 -2.817264 -7.055522 1.842257 1.201775 -4.375430 -6.734156 3.860088 -5.177188 0.529256 102.034195 -71.232240 -114.280014 1.323801 -17.694436 -24.539404 -8.924991 -4.534142 -0.564108 4.973016 -3.032463 0.277592 -136.008125 -64.985832 136.341925 13.900198 -11.852517 10.251716 -2.079291 -48.416661 10.686045 -122.266534 81.731447 -110.499448 -0.374075 -15.036067 -3.879097 0.023500 0.827625 -0.042397 -7.208923 -52.962941 17.375526 -152.481387 80.978166 -160.593045 -0.324413 -15.515411 9.231921 -0.420461 -0.504268 -0.088091
-2.587925 49.874983 29.176411 173.007305 -31.364787 -6.607582 6.029449 18.327311 6.465222 0.624715 2.283499 0.571820 1.091472 3.778181 0.949426 4.940439 15.860372 4.661155 -1.323637 15.576589 0.728060 -2.732694 -6.839216 1.838776 1.236712 -4.414782 -6.806612 3.683532 -5.155856 0.465436 103.820978 -70.179294 -116.127953 1.487333 -17.878447 -24.720789 -8.883404 -4.601334 -0.558516 5.100530 -3.125731 0.376905 -136.434262 -64.166986 136.820506 14.001371 -12.331786 10.549788 -2.154756 -48.466447 10.710368 -122.405560 81.738449 -110.638169 -0.361954 -15.050533 -3.915760 0.033439 0.825508 -0.047331 -7.194820 -53.015666 17.417230 -152.321280 80.960778 -160.467622 -0.349755 -15.520233 9.267238 -0.424418 -0.506667 -0.095386
-2.579734 49.878680 29.168536 173.004108 -31.337451 -6.618248 5.994339 18.303390 6.470410 0.618890 2.270653 0.569290 1.080413 3.763832 0.948218 4.912699 15.820455 4.648693 -1.269546 15.675447 0.726710 -2.651969 -6.586334 1.861962 1.269593 -4.448271 -6.876824 3.511772 -5.137309 0.392290 105.432713 -69.121823 -117.830079 1.634671 -18.044188 -24.920792 -8.852694 -4.662282 -0.546208 5.222177 -3.229350 0.469115 -136.846070 -63.355827 137.296369 14.123809 -12.799948 10.866102 -2.193692 -48.489476 10.732867 -122.500702 81.733057 -110.701061 -0.379850 -15.062737 -3.964777 0.068405 0.818554 -0.029482 -7.198056 -53.035232 17.466571 -152.212160 80.945432 -160.384746 -0.359207 -15.527611 9.290448 -0.435323 -0.512004 -0.104650
-2.576514 49.879412 29.165249 172.986723 -31.277956 -6.601029 5.961868 18.245152 6.449171 0.631982 2.265582 0.565776 1.048854 3.738835 0.947868 4.890380 15.781514 4.638452 -1.217495 15.778092 0.728389 -2.561247 -6.323466 1.892166 1.304129 -4.478248 -6.944887 3.345515 -5.124260 0.301946 106.922933 -68.089591 -119.425115 1.766407 -18.185286 -25.135406 -8.833702 -4.723989 -0.528836 5.343002 -3.344002 0.556990 -137.271567 -62.567081 137.788053 14.251622 -13.262482 11.210173 -2.267875 -48.541708 10.753281 -122.641401 81.753200 -110.854358 -0.358279 -15.076399 -4.007658 0.060810 0.819269 -0.023355 -7.182062 -53.092077 17.477888 -152.189863 80.940470 -160.384280 -0.359851 -15.530873 9.301672 -0.447045 -0.516308 -0.114154
-2.573751 49.877945 29.166492 172.964170 -31.192285 -6.587143 5.934732 18.160405 6.431849 0.643633 2.258343 0.562011 1.021395 3.709269 0.945576 4.866128 15.751193 4.634554 -1.166297 15.901057 0.744752 -2.461480 -6.078558 1.912185 1.343287 -4.507596 -7.013276 3.183369 -5.121084 0.187078 108.326850 -67.105516 -120.930690 1.885732 -18.297617 -25.364513 -8.823408 -4.789641 -0.510372 5.464745 -3.473964 0.640238 -137.735501 -61.809966 138.314495 14.370791 -13.725472 11.588212 -2.365917 -48.612329 10.781961 -122.759825 81.786542 -110.992985 -0.311402 -15.101355 -4.031700 0.024774 0.835767 -0.039083 -7.162960 -53.177822 17.508881 -152.085590 80.931925 -160.299500 -0.387703 -15.540000 9.309809 -0.440865 -0.507370 -0.105083
-2.566784 49.880190 29.163234 172.965103 -31.146280 -6.612199 5.904586 18.116012 6.448339 0.637109 2.244367 0.559199 0.979281 3.667115 0.944262 4.875053 15.747412 4.632408 -1.116910 16.021643 0.761155 -2.359551 -5.840249 1.931641 1.379500 -4.539405 -7.081823 3.026860 -5.129701 0.044341 109.668802 -66.176976 -122.362931 1.988071 -18.374321 -25.599235 -8.817531 -4.857514 -0.494606 5.583945 -3.629324 0.722017 -138.234040 -61.087152 138.870227 14.480628 -14.200913 12.010348 -2.414980 -48.653570 10.819584 -122.824095 81.787830 -111.026956 -0.324497 -15.113662 -4.065012 0.054689 0.836676 -0.035300 -7.171945 -53.223253 17.561998 -151.973521 80.915202 -160.187870 -0.417705 -15.547511 9.324559 -0.430809 -0.504035 -0.120211
-2.562769 49.882020 29.159515 172.959163 -31.105372 -6.620504 5.892705 18.075899 6.454045 0.614994 2.232442 0.560454 1.003894 3.671765 0.939809 4.821791 15.700826 4.635627 -1.061120 16.187716 0.813855 -2.261008 -5.663543 1.916996 1.424838 -4.528015 -7.126392 2.858737 -5.191887 -0.149592 110.961684 -65.304655 -123.731824 2.067959 -18.417935 -25.834485 -8.812741 -4.925129 -0.483172 5.699019 -3.813609 0.809353 -138.746868 -60.399828 139.431991 14.585231 -14.708634 12.496373 -2.475506 -48.686235 10.846558 -122.907150 81.801118 -111.098559 -0.313460 -15.122062 -4.104601 0.060731 0.834686 -0.026176 -7.186364 -53.260490 17.590603 -151.994315 80.910512 -160.214206 -0.427665 -15.555413 9.327588 -0.432986 -0.503939 -0.116968
-2.558944 49.884149 29.154728 172.955013 -31.075623 -6.632482 5.859060 18.053402 6.460792 0.621408 2.219849 0.558269 0.995696 3.655662 0.937968 4.791089 15.678318 4.639258 -1.004450 16.318458 0.843523 -2.162134 -5.467004 1.920164 1.466896 -4.586091 -7.208726 2.707585 -5.201100 -0.322019 112.191488 -64.490554 -125.028184 2.120421 -18.448588 -26.065858 -8.803314 -4.992026 -0.477285 5.809590 -4.020588 0.906652 -139.254922 -59.741555 139.980441 14.690509 -15.259664 13.082868 -2.561488 -48.702002 10.878865 -123.054394 81.826443 -111.226736 -0.318241 -15.131706 -4.171287 0.084661 0.823830 0.003707 -7.180002 -53.288879 17.613238 -151.980535 80.901670 -160.203258 -0.440935 -15.566791 9.345344 -0.437330 -0.504036 -0.127783
-2.556244 49.885688 29.149956 172.934174 -31.049193 -6.633821 5.835342 18.035421 6.465430 0.625364 2.207799 0.554435 0.953752 3.628975 0.943161 4.794993 15.669840 4.637776 -0.947680 16.427680 0.861867 -2.060725 -5.265219 1.931742 1.527108 -4.644977 -7.294232 2.557443 -5.218216 -0.507201 113.345967 -63.730301 -126.252187 2.147346 -18.484136 -26.288507 -8.789980 -5.058449 -0.475572 5.915441 -4.241347 1.017145 -139.735195 -59.095828 140.502834 14.803859 -15.864679 13.812776 -2.593053 -48.724429 10.902636 -123.137203 81.837338 -111.299765 -0.315000 -15.149264 -4.180349 0.088457 0.830217 -0.005389 -7.150277 -53.314738 17.629260 -151.990743 80.888188 -160.220014 -0.451219 -15.586323 9.375128 -0.447757 -0.503008 -0.143090
-2.554390 49.885657 29.146969 172.933505 -31.009616 -6.646364 5.817409 18.000096 6.473538 0.603824 2.201794 0.556246 0.936287 3.612420 0.946491 4.793808 15.661100 4.634754 -0.903198 16.520599 0.890032 -1.961982 -5.073367 1.947286 1.577605 -4.652812 -7.338991 2.419723 -5.302328 -0.737237 114.426555 -63.017581 -127.412785 2.158940 -18.528207 -26.498698 -8.797716 -5.134998 -0.464355 6.012576 -4.470318 1.143556 -140.145677 -58.447744 140.975725 14.917490 -16.546149 14.729885 -2.650781 -48.755838 10.927392 -123.222725 81.849943 -111.379601 -0.291804 -15.165236 -4.199773 0.075878 0.835636 -0.009233 -7.144500 -53.358552 17.638771 -152.006054 80.878714 -160.224759 -0.464698 -15.594087 9.384737 -0.440710 -0.502391 -0.150515
